<?xml version="1.0" standalone="no"?>
<!DOCTYPE svg PUBLIC "-//W3C//DTD SVG 20010904//EN"
 "http://www.w3.org/TR/2001/REC-SVG-20010904/DTD/svg10.dtd">
<svg version="1.0" xmlns="http://www.w3.org/2000/svg"
 width="325.000000pt" height="95.000000pt" viewBox="0 0 325.000000 95.000000"
 preserveAspectRatio="xMidYMid meet">

<g transform="translate(0.000000,95.000000) scale(0.100000,-0.100000)"
fill="#000000" stroke="none">
<path d="M0 475 l0 -475 1625 0 1625 0 0 475 0 475 -1625 0 -1625 0 0 -475z
m2200 173 c58 -30 90 -78 90 -135 0 -62 -22 -108 -68 -138 l-39 -26 31 -33
c30 -32 106 -197 106 -231 0 -13 -10 -15 -61 -13 l-60 3 -40 95 c-44 106 -82
150 -129 150 l-30 0 0 -112 c0 -62 -4 -119 -9 -126 -5 -9 -25 -12 -62 -10
l-54 3 -3 278 c-1 180 1 285 8 297 10 18 22 20 143 20 118 0 138 -3 177 -22z
m-1032 -128 c108 -24 161 -113 149 -251 -7 -79 -23 -114 -71 -157 -40 -35 -91
-52 -157 -52 -135 0 -211 79 -212 223 0 121 50 203 143 232 56 17 85 18 148 5z
m1476 -1 c76 -19 124 -81 133 -173 8 -81 -1 -86 -158 -86 l-129 0 0 -26 c0
-15 12 -38 30 -56 30 -29 33 -30 103 -25 40 3 87 9 105 13 l33 6 -3 -38 c-4
-49 -31 -64 -131 -71 -95 -7 -151 9 -198 56 -79 79 -80 249 -2 340 51 60 130
82 217 60z m510 -17 c25 -14 32 -26 34 -56 5 -53 -8 -62 -49 -37 -47 29 -103
27 -133 -2 -46 -46 -46 -178 -1 -223 30 -30 87 -32 133 -4 46 28 52 26 52 -23
0 -49 -15 -67 -69 -86 -110 -37 -225 18 -256 123 -29 96 -10 207 46 271 55 62
170 80 243 37z m-1676 6 c9 -12 77 -222 89 -276 8 -35 20 -35 32 0 5 18 26 87
47 153 20 66 42 123 48 127 19 13 93 9 99 -5 4 -12 -120 -400 -136 -425 -11
-17 -143 -16 -154 1 -14 22 -132 381 -133 403 0 11 3 24 7 27 11 12 90 7 101
-5z"/>
<path d="M2000 495 l0 -85 54 0 c72 0 110 29 110 85 0 56 -38 85 -110 85 l-54
0 0 -85z"/>
<path d="M1067 430 c-38 -11 -54 -34 -67 -96 -8 -38 -8 -64 1 -97 15 -60 40
-82 95 -82 64 0 94 33 101 112 11 122 -42 188 -130 163z"/>
<path d="M2552 443 c-25 -5 -62 -56 -62 -85 0 -16 11 -18 83 -18 46 0 86 3 89
6 9 8 -9 66 -24 80 -16 14 -56 22 -86 17z"/>
</g>
</svg>
